<?xml version="1.0" encoding="UTF-8"?>
<svg width="350" height="350" version="1.1" viewBox="0 0 92.604 92.604" xmlns="http://www.w3.org/2000/svg" xmlns:cc="http://creativecommons.org/ns#" xmlns:dc="http://purl.org/dc/elements/1.1/" xmlns:rdf="http://www.w3.org/1999/02/22-rdf-syntax-ns#">
 <metadata>
  <rdf:RDF>
   <cc:Work rdf:about="">
    <dc:format>image/svg+xml</dc:format>
    <dc:type rdf:resource="http://purl.org/dc/dcmitype/StillImage"/>
    <dc:title/>
   </cc:Work>
  </rdf:RDF>
 </metadata>
 <circle cx="46.302" cy="46.302" r="46.302" fill="#2e7d32" stroke-width="6.9528"/>
 <g>
  <text fill="#000000" font-family="sans-serif" font-size="10.583px" letter-spacing="0px" word-spacing="0px" style="line-height:1.25;shape-inside:url(#rect835);white-space:pre" xml:space="preserve"/>
  <path transform="matrix(.25948 0 0 .25948 .0002361 21.456)" d="m60.242 4.002-0.9375 3.5h20.5l-48.365 180.5h-20.5l-0.9375 3.5h44l0.9375-3.5h-20l47.762-178.25 74.051 181.75h80.139l0.9375-3.5h-28.5l24.785-92.5h23.25l44.729 95.25-0.20118 0.75h51.25l0.9375-3.5h-23l-45.014-93.25c34.188-3.5 62.007-17.75 69.309-45 8.4404-31.5-19.492-45.75-61.492-45.75h-107.39l-0.9375 3.5h20.5l-37.514 140-58.299-143.5zm149.31 3.5h23.389l-48.365 180.5h-23.389zm48.139 0h30.5c31 0 46.04 8.25 36.93 42.25-8.9763 33.5-28.572 42.25-59.572 42.25h-30.5z" fill="#03a9f4" style="white-space:pre"/>
  <path transform="matrix(.25948 0 0 .25948 .0002361 21.456)" d="m55.242 2.002-0.9375 3.5h20.5l-48.365 180.5h-20.5l-0.9375 3.5h44l0.9375-3.5h-20l47.762-178.25 74.051 181.75h80.139l0.9375-3.5h-28.5l24.785-92.5h23.25l44.729 95.25-0.20118 0.75h51.25l0.9375-3.5h-23l-45.014-93.25c34.188-3.5 62.007-17.75 69.309-45 8.4404-31.5-19.492-45.75-61.492-45.75h-107.39l-0.9375 3.5h20.5l-37.514 140-58.299-143.5zm149.31 3.5h23.389l-48.365 180.5h-23.389zm48.139 0h30.5c31 0 46.04 8.25 36.93 42.25-8.9763 33.5-28.572 42.25-59.572 42.25h-30.5z" fill="#808080" style="white-space:pre"/>
  <path transform="matrix(.25948 0 0 .25948 .0002361 21.456)" d="m50.242 0.0019531-0.9375 3.5h20.5l-48.365 180.5h-20.5l-0.9375 3.5h44l0.9375-3.5h-20l47.762-178.25 74.051 181.75h80.139l0.9375-3.5h-28.5l24.785-92.5h23.25l44.729 95.25-0.20118 0.75h51.25l0.9375-3.5h-23l-45.014-93.25c34.188-3.5 62.007-17.75 69.309-45 8.4404-31.5-19.492-45.75-61.492-45.75h-107.39l-0.9375 3.5h20.5l-37.514 140-58.299-143.5zm149.31 3.5h23.389l-48.365 180.5h-23.389zm48.139 0h30.5c31 0 46.04 8.25 36.93 42.25-8.9763 33.5-28.572 42.25-59.572 42.25h-30.5z" style="white-space:pre"/>
 </g>
</svg>
